<?xml version="1.0" encoding="utf-8"?>
<!-- Generator: Adobe Illustrator 18.1.1, SVG Export Plug-In . SVG Version: 6.00 Build 0)  -->
<svg version="1.1" id="Layer_1" xmlns="http://www.w3.org/2000/svg" xmlns:xlink="http://www.w3.org/1999/xlink" x="0px" y="0px"
	 viewBox="0 0 586.1 76.7" enable-background="new 0 0 586.1 76.7" xml:space="preserve">
<path fill="#4A0D66" d="M54.9,20.8V0H0v21c0,39.5,27.4,55.7,27.4,55.7l0,0c0,0,27.6-15.2,27.4-55.8V20.8z"/>
<path fill="#FFFFFF" d="M39.6,17.4c-3.9-5.1-3.2-7.4-3.2-7.4s-2.1,3.7-3.1,6.8c-1.3,3.7,1.2,7.6,1.2,7.6l4.3,6.2
	c1.6,2.6-2.4,8.6-2.4,8.6l-8.8-20.5C23.9,10.2,26.1,7,26.1,7c-7.3,7.7-6.3,12.5-5.2,15.9c0,0,1.6,4,3.7,9.1l-2.8,7.4L16,25.9
	c-2-5.1,0.1-8.6,0.1-8.6c-9.2,8-5.8,16.2-4,20.4c3.9,9.5,6.5,15.5,7.1,17.1c0.1,0.4,0.2,0.6,0.2,0.6h1.7c0.1,0,0.3-0.1,0.4-0.2
	c0.1-0.1,0.7-2,0.7-2l4.6-15.6c3,7.5,6.8,16.7,7,17.3c0.1,0.3,0.2,0.5,0.2,0.5c0,0,1.7,0,1.7,0c0.1,0,0.2-0.1,0.3-0.2
	c0.1-0.2,0.7-2,0.7-2l6.8-19.5C46.9,25.1,42.7,21.5,39.6,17.4z"/>
<g>
	<path fill="#585148" d="M111.7,49.8h-0.9c-7.3-15.8-8.2-18-8.9-20h0c-0.8,2.1-1.7,4.2-9.2,20h-0.9l-5.8-19.4
		c-3-10-3.3-11.3-4.7-11.5v-0.6c1,0,2.5,0,4.4,0c1.8,0,3.3,0,5.2,0v0.6c-1.9,0.2-1.6,1.5,0.3,8.3c1.4,5,2,7.1,2.5,9.2h0.1
		c0.8-2.1,1.5-3.8,3.8-8.9c1.3-2.9,2.9-6,4.2-8.6h0.8c1.2,2.5,2.7,5.5,4.2,8.5c2.1,4.8,2.9,6.7,3.7,8.7h0.1c0.4-2.1,1-4,2.4-8.8
		c1.9-6.9,2.3-8.2,0.4-8.4v-0.6c1.3,0,2.9,0,4.8,0c1.9,0,3,0,4.2,0v0.6c-1.2,0.2-1.6,1.5-4.6,11.5L111.7,49.8z"/>
	<path fill="#585148" d="M125.7,30.7c0-10.3,0-11.7-1.6-11.9v-0.6c1.4,0,4.7,0,8.5,0c3.4,0,6.9,0,9.4,0c-0.1,1.9-0.1,3.9-0.2,6.7
		h-0.6c-0.2-1.5-1.7-1.9-4.4-1.9h-5.2v8h4.5c2.8,0,3.6-0.1,3.9-1h0.6c0,1.2,0,2.3,0,3.3c0,1.2,0,2.3,0,3.6h-0.6
		c-0.2-1-1.1-1.1-3.8-1.1h-4.6v7.3c0,0.8,0.1,1,0.8,1.1c2,0,4.2,0,6,0c1.9,0,3.1-0.3,3.4-1.7h0.6c-0.1,2.9-0.1,4.7-0.1,6.7
		c-2.7,0-6,0-8.9,0c-4.3,0-8.1,0-9.4,0v-0.6c1.7-0.2,1.7-1.5,1.7-12.7V30.7z"/>
	<path fill="#585148" d="M167.6,40.5c0,3.1-1.6,5.6-3.8,6.9c-1.9,1.3-4.5,1.9-9,1.9c-1.3,0-2.7-0.1-4.2-0.1c-0.9,0-2.1,0-3.5,0v-0.6
		c1.7-0.1,1.7-1.5,1.7-12.6v-5.3c0-10.3,0-11.6-1.5-11.7v-0.6c0.9,0,2.7,0,3.7,0c1.2,0,3-0.1,4.6-0.1c1.9,0,3.8,0.2,5.3,0.7
		c2.3,0.7,5.4,2.9,5.4,7.5c0,3.3-2.3,6-5,6.7v0C164.6,33.7,167.6,36.5,167.6,40.5L167.6,40.5z M160.5,26.9c0-2.5-1.7-3.9-4.3-3.9
		c-0.6,0-1.3,0.1-1.7,0.1v7.9c0.4,0,0.8,0,1.1,0c0.7,0,1.5-0.1,2.2-0.4C159,30.3,160.5,29.1,160.5,26.9L160.5,26.9z M161.5,40
		c0-2.2-1.5-3.5-3-3.9c-0.7-0.2-1.7-0.4-2.6-0.4c-0.4,0-1.1,0-1.5,0.1v7.7c0,0.6,0.1,0.7,0.3,0.8c0.5,0.1,1.1,0.1,1.6,0.1
		c1,0,2.1-0.2,2.9-0.7C160.4,43.1,161.5,42,161.5,40L161.5,40z"/>
	<path fill="#585148" d="M173.6,30.7c0-10.3,0-11.7-1.6-11.9v-0.6c1.4,0,4.7,0,8.5,0c3.4,0,6.9,0,9.4,0c-0.1,1.9-0.1,3.9-0.2,6.7
		h-0.6c-0.2-1.5-1.7-1.9-4.4-1.9h-5.2v8h4.5c2.8,0,3.6-0.1,3.9-1h0.6c0,1.2,0,2.3,0,3.3c0,1.2,0,2.3,0,3.6h-0.6
		c-0.2-1-1.1-1.1-3.8-1.1h-4.6v7.3c0,0.8,0.1,1,0.8,1.1c2,0,4.2,0,6,0c1.9,0,3.1-0.3,3.4-1.7h0.6c-0.1,2.9-0.1,4.7-0.1,6.7
		c-2.7,0-6,0-8.9,0c-4.3,0-8.1,0-9.4,0v-0.6c1.7-0.2,1.7-1.5,1.7-12.7V30.7z"/>
	<path fill="#585148" d="M196.7,30.7c0-10.3,0-11.7-1.7-11.8v-0.6c1,0,2.5,0,4.1-0.1c1.2,0,3.1-0.1,4.4-0.1c2.2,0,4.2,0.3,5.8,0.8
		c2.8,1,5.6,3.5,5.6,8.5c0,3.5-1.8,5.9-3.3,7c-0.8,0.6-1.7,1.2-2.4,1.5v0.1c1.3,1.7,2.4,3.2,7.2,9.7c1.1,1.5,2.3,2.7,3.2,2.9v0.6
		H216h-2.8c-0.7,0-1.3-0.1-1.8-0.5c-2.4-3.6-5-7.5-7.7-11.5c-0.4,0-0.9,0-1.3,0v1.7c0,8.3,0,9.6,1.5,9.8v0.6c-1,0-2.7,0-4.3,0
		c-1.9,0-3.5,0-4.5,0v-0.6c1.6-0.2,1.6-1.5,1.6-12.7V30.7z M209.1,27.7c0-2.8-1.8-4.6-4.9-4.6c-0.7,0-1.4,0.1-1.7,0.1v9.6
		c0.4,0,0.9,0,1.3,0c1.2,0,2.3-0.3,3.1-0.9C208,31.3,209.1,29.9,209.1,27.7L209.1,27.7z"/>
	<path fill="#585148" d="M248.9,41c0,5-3.9,8.7-10.3,8.7c-2.4,0-4.9-0.5-6.3-1.2c0.1-2,0.2-3.8,0.2-7h0.6c0.3,1.1,0.9,1.8,1.6,2.3
		c0.9,0.5,2.2,0.8,3.5,0.8c2.5,0,4.4-1.3,4.4-3.6c0-1.4-0.8-2.6-2.3-3.7c-1-0.8-2.2-1.7-3.4-2.7c-2.9-2.2-4.3-4.6-4.3-7.8
		c0-4.8,3.6-8.7,10-8.7c1.7,0,3.7,0.3,4.9,0.7c-0.1,2.3-0.2,4.2-0.2,6.9h-0.6c-0.2-0.9-0.7-1.5-1.3-1.9c-0.6-0.4-1.4-0.6-2.5-0.6
		c-2.5,0-4.2,1.3-4.2,3.4c0,1.3,0.6,2.3,1.6,3.2c1,0.9,2.3,1.8,4,3.2C247.2,35.1,248.9,37.5,248.9,41L248.9,41z"/>
	<path fill="#585148" d="M260.7,23.1h-5.4c-2,0-2.9,0.5-3.3,2.1h-0.6c0-2.6,0-5,0-6.9c3.3,0,6.9,0,10,0h4.4c3.4,0,7.1,0,10,0v6.9
		h-0.6c-0.4-1.6-1.3-2.1-3.2-2.1h-5.4v12.9c0,11.2,0,12.6,1.9,12.7v0.6c-1.3,0-3.1,0-4.8,0c-1.9,0-3.7,0-4.8,0v-0.6
		c1.8-0.2,1.8-1.5,1.8-12.7V23.1z"/>
	<path fill="#585148" d="M282.5,43c-1.7,4.2-2.2,5.6-0.6,5.7v0.6c-1.5,0-3.1,0-4.7,0c-2.1,0-3.5,0-4.4,0v-0.6
		c1.2-0.1,1.9-1.5,6.7-12.7l7.8-18.2h1l7.6,18.3c4.6,11.1,5.3,12.5,6.5,12.6v0.6c-0.9,0-2.3,0-4.4,0c-1.7,0-3.5,0-5.2,0v-0.6
		c1.5-0.1,1-1.5-0.6-5.7H282.5z M290.6,38.4l0-0.1c-2.3-6.1-2.8-7.6-3.1-8.6h0c-0.3,1-0.9,2.5-3.2,8.6l0,0.1H290.6z"/>
	<path fill="#585148" d="M309.1,23.1h-5.4c-2,0-2.9,0.5-3.3,2.1h-0.6c0-2.6,0-5,0-6.9c3.3,0,6.9,0,10,0h4.4c3.4,0,7.1,0,10,0v6.9
		h-0.6c-0.4-1.6-1.3-2.1-3.2-2.1h-5.4v12.9c0,11.2,0,12.6,1.9,12.7v0.6c-1.3,0-3.1,0-4.8,0c-1.9,0-3.7,0-4.8,0v-0.6
		c1.8-0.2,1.8-1.5,1.8-12.7V23.1z"/>
	<path fill="#585148" d="M328.9,30.7c0-10.3,0-11.7-1.6-11.9v-0.6c1.4,0,4.7,0,8.5,0c3.4,0,6.9,0,9.4,0c-0.1,1.9-0.1,3.9-0.2,6.7
		h-0.6c-0.2-1.5-1.7-1.9-4.4-1.9h-5.2v8h4.5c2.8,0,3.6-0.1,3.9-1h0.6c0,1.2,0,2.3,0,3.3c0,1.2,0,2.3,0,3.6h-0.6
		c-0.2-1-1.1-1.1-3.8-1.1h-4.6v7.3c0,0.8,0.1,1,0.8,1.1c2,0,4.2,0,6,0c1.9,0,3.1-0.3,3.4-1.7h0.6c-0.1,2.9-0.1,4.7-0.1,6.7
		c-2.7,0-6,0-8.9,0c-4.3,0-8.1,0-9.4,0v-0.6c1.7-0.2,1.7-1.5,1.7-12.7V30.7z"/>
	<path fill="#585148" d="M363.1,30.3c0-10.2,0-11.4-1.6-11.5v-0.5c1,0,2.2,0,3.7,0c1.4,0,2.6,0,3.5,0v0.5c-1.7,0.1-1.7,1.3-1.7,11.5
		v6c0,3.5,0.6,5.6,2,7.3c1.3,1.7,3.7,2.7,6.2,2.7c2.4,0,4.6-0.8,6-2.5c1.5-1.7,2.1-4,2.1-7.5v-5.8c0-10.2,0-11.4-1.7-11.6v-0.5
		c1,0,2.2,0,3.5,0c1.4,0,2.6,0,3.4,0v0.5c-1.5,0.2-1.5,1.4-1.5,11.6v5.9c0,4.6-1,7.5-2.9,9.7c-1.8,2.2-5,3.8-8.9,3.8
		c-4.1,0-7.4-1.5-9.4-4.2c-1.7-2.2-2.5-4.9-2.5-9V30.3z"/>
	<path fill="#585148" d="M416.5,49.7h-0.6c-7.6-8.9-12.1-14.1-14.8-17.3c-1.8-2.1-3.1-3.6-5.1-6.2h0v10.5c0,10.8,0,12,1.7,12.1v0.5
		c-1.1,0-2.3,0-3.5,0c-1.4,0-2.3,0-3.2,0v-0.5c1.7-0.2,1.7-1.4,1.7-12.3V18h0.6c7.7,9.1,12.3,14.5,15.1,17.7c1.7,2,3,3.5,4.8,5.9
		h0.1V30.3c0-10.1,0-11.4-1.7-11.5v-0.5c0.9,0,2.1,0,3.3,0c1.4,0,2.4,0,3.3,0v0.5c-1.5,0.2-1.5,1.4-1.5,11.6V49.7z"/>
	<path fill="#585148" d="M428.1,36.5c0,10.9,0,12.1,1.8,12.3v0.5c-1,0-2.3,0-3.7,0c-1.5,0-2.7,0-3.6,0v-0.5
		c1.7-0.2,1.7-1.3,1.7-12.2v-6.2c0-10.2,0-11.4-1.7-11.5v-0.6c0.9,0,2.1,0,3.5,0c1.3,0,2.7,0,3.5,0v0.5c-1.6,0.2-1.6,1.3-1.6,11.5
		V36.5z"/>
	<path fill="#585148" d="M446.4,49.7h-0.6l-8-19.4c-4.2-10.2-4.8-11.4-6.1-11.5v-0.5c0.6,0,1.9,0,3.5,0c1.5,0,3,0,3.9,0v0.5
		c-1.9,0.1-1.4,1.3,2.3,10.5c2.5,6.3,3.7,9.2,4.8,12.7h0.1c1.2-3.4,2.3-6.3,4.8-12.7c3.7-9.1,4.2-10.3,2.3-10.5v-0.5
		c1,0,2.5,0,3.8,0c1.3,0,2.5,0,3.1,0v0.5c-1.3,0.1-1.8,1.3-6,11.5L446.4,49.7z"/>
	<path fill="#585148" d="M464.2,30.3c0-10.2,0-11.4-1.5-11.5v-0.5c1.5,0,4.2,0,7.5,0c3.2,0,6.5,0,8.7,0c-0.1,1.7-0.2,3.3-0.2,5h-0.5
		c-0.2-1.6-1.4-1.9-4.1-1.9h-6.2v10.5h5.4c2.8,0,3.7,0,4-1h0.4c0,0.9,0,1.7,0,2.5c0,0.9,0,1.8,0,2.8h-0.4c-0.2-1.1-1.1-1.2-3.8-1.2
		h-5.6v10.2c0,0.8,0,0.9,0.8,1h6.9c1.9,0,2.9-0.2,3.3-1.7h0.5c-0.1,1.4-0.2,3.3-0.2,5c-2.4,0-5.6,0-8.6,0c-3.5,0-6.5,0-8,0v-0.5
		c1.5-0.1,1.5-1.3,1.5-12.3V30.3z"/>
	<path fill="#585148" d="M485.7,30.3c0-10.2,0-11.4-1.6-11.5v-0.5c1,0,1.9,0,3.1,0c1.1,0,2.7-0.1,3.7-0.1c2,0,3.9,0.2,5.5,0.8
		c2.3,0.8,5.1,3.2,5.1,7.8c0,3.8-2,6.2-3.7,7.3c-0.9,0.6-1.9,1.2-2.8,1.4v0.1c0.9,1.2,1.7,2.4,7.6,10.3c1.1,1.4,2.3,2.7,3.3,2.9v0.5
		c-0.8,0-1.7,0-2.7,0c-0.7,0-1.1,0-1.8,0c-0.5,0-1-0.2-1.4-0.6c-2.5-3.6-5.2-7.4-8.8-12.5h-2v1.7c0,9.5,0,10.8,1.5,10.9v0.5
		c-0.9,0-2,0-3.3,0c-1.4,0-2.5,0-3.5,0v-0.5c1.6-0.1,1.6-1.3,1.6-12.3V30.3z M497.7,27c0-3.5-2.3-5.7-6.4-5.7c-0.8,0-1.7,0-2.1,0.1
		v11.9c0.4,0,0.9,0,1.5,0c1.4,0,2.8-0.3,3.8-0.9C496.2,31.6,497.7,29.9,497.7,27L497.7,27z"/>
	<path fill="#585148" d="M522,41.5c0,4.3-3.3,8.2-9.6,8.2c-2.1,0-4.3-0.5-5.6-1c0.1-1.7,0.2-3.3,0.2-5.3h0.5
		c0.2,1.1,0.7,1.9,1.5,2.3c0.8,0.5,2.1,0.8,3.4,0.8c3.2,0,5.7-1.9,5.7-4.9c0-1.8-0.7-3.3-2.5-4.8c-1.3-1-2.5-1.9-3.9-3.1
		c-2.8-2.2-4.3-4.4-4.3-7.6c0-4.4,3.5-8.1,9.1-8.1c1.7,0,3.3,0.3,4.4,0.6c-0.1,1.7-0.2,3.3-0.2,5.1h-0.5c-0.2-1-0.6-1.6-1.3-2
		c-0.6-0.3-1.5-0.6-2.4-0.6c-3.1,0-5.3,1.8-5.3,4.6c0,1.6,0.7,2.9,1.9,4.1c1.1,1.1,2.4,2,4.1,3.4C520,35.5,522,37.7,522,41.5
		L522,41.5z"/>
	<path fill="#585148" d="M531.6,36.5c0,10.9,0,12.1,1.8,12.3v0.5c-1,0-2.3,0-3.7,0c-1.5,0-2.7,0-3.6,0v-0.5
		c1.7-0.2,1.7-1.3,1.7-12.2v-6.2c0-10.2,0-11.4-1.7-11.5v-0.6c0.9,0,2.1,0,3.5,0c1.3,0,2.7,0,3.5,0v0.5c-1.6,0.2-1.6,1.3-1.6,11.5
		V36.5z"/>
	<path fill="#585148" d="M545.9,21.4h-6c-2.2,0-2.9,0.4-3.3,2.1h-0.5v-5.2c3.2,0,7,0,9.9,0h3.4c3.2,0,7.1,0,9.9,0v5.2h-0.5
		c-0.4-1.7-1.2-2.1-3.2-2.1h-6v15.2c0,11,0,12.2,1.8,12.3v0.5c-1,0-2.3,0-3.6,0c-1.4,0-2.8,0-3.7,0v-0.5c1.8-0.2,1.8-1.3,1.8-12.3
		V21.4z"/>
	<path fill="#585148" d="M575.5,36.7v1.4c0,9.2,0,10.5,1.8,10.7v0.5c-1,0-2.2,0-3.6,0c-1.6,0-3,0-3.7,0v-0.5
		c1.7-0.2,1.7-1.4,1.7-10.6V37l-3.5-6.6c-5.6-10.4-6-11.5-7.3-11.6v-0.5c0.5,0,1.7,0,3.2,0c1.4,0,2.8,0,4,0v0.5
		c-1.8,0.2-1.2,1.3,2,7.5c1.7,3.2,2.7,5.2,3.5,6.9h0.1c0.8-1.6,1.8-3.6,3.5-6.8c3.3-6.2,3.8-7.5,2.1-7.6v-0.5c1.2,0,2.5,0,3.8,0
		c1.4,0,2.3,0,2.9,0v0.5c-1.1,0.2-1.6,1.2-7.3,11.7L575.5,36.7z"/>
</g>
</svg>
